PathFileType	4	(X/Y/Z)	C:\Users\WrightLab\Desktop\Jo\P4V12.trc
DataRate	CameraRate	NumFrames	NumMarkers	Units	OrigDataRate	OrigDataStartFrame	OrigNumFrames
100.00	100.00	       76	19	mm	100.00	527	       602
Frame#	Time	Headset_Front			Headset_Back			Headset_Left			Headset_Right			Left_Shoulder			Right_Shoulder			Sternum			C7			Left Elbow			Right Elbow			Left Wrist			Right Wrist			Left ASIS			Right ASIS			S2			Left Knee			Right Knee			Left Ankle			Right Ankle			
		X1	Y1	Z1	X2	Y2	Z2	X3	Y3	Z3	X4	Y4	Z4	X5	Y5	Z5	X6	Y6	Z6	X7	Y7	Z7	X8	Y8	Z8	X9	Y9	Z9	X10	Y10	Z10	X11	Y11	Z11	X12	Y12	Z12	X13	Y13	Z13	X14	Y14	Z14	X15	Y15	Z15	X16	Y16	Z16	X17	Y17	Z17	X18	Y18	Z18	X19	Y19	Z19	

527	5.260																																																	10.40682	548.79755	-1598.98193				-88.34492	57.02945	-1503.14880	
528	5.270																																																	8.76703	549.89978	-1597.03687				-77.88400	50.35871	-1519.57593	
529	5.280																																																	8.41739	548.73956	-1600.07324				-69.52509	50.07649	-1527.66443	
530	5.290																																																	8.57441	546.51605	-1604.44592				-60.40773	44.49164	-1546.51746	
531	5.300																																																	8.39882	545.84027	-1605.95947				-53.20055	43.86693	-1555.51331	
532	5.310																																																	9.07823	543.86700	-1608.89514				-47.12156	41.78894	-1566.07178	
533	5.320																																																	9.13674	543.95496	-1608.37195				-41.34014	38.21931	-1582.01831	
534	5.330																																																	9.24666	544.13043	-1607.39014				-37.09496	38.48842	-1589.69775	
535	5.340																																																	11.79531	541.22632	-1611.97986				-32.70629	35.12308	-1601.55554	
536	5.350																																																	11.85762	540.45294	-1608.91248				-30.18094	33.85540	-1611.09961	
537	5.360																																																	13.43672	538.87872	-1612.20313				-27.14429	33.08895	-1621.17688	
538	5.370																																																	14.80697	536.64117	-1615.70715				-24.71034	33.07711	-1629.87195	
539	5.380																																																	14.31723	536.28070	-1613.38721				-23.40164	31.96972	-1635.83899	
540	5.390																																																	16.84104	533.56561	-1619.90991				-22.06722	30.52569	-1643.36194	
541	5.400																																																	18.36643	531.44781	-1622.07092				-22.19610	31.30773	-1645.67432	
542	5.410																																																	18.55105	531.56335	-1620.37561				-21.81726	29.75484	-1651.01013	
543	5.420																																																	19.64213	530.14331	-1620.59375				-22.21856	28.39714	-1654.41162	
544	5.430																																																							-22.16481	25.24143	-1661.01233	
545	5.440																																																							-22.48253	24.05659	-1663.68518	
546	5.450																																																							-22.94420	22.47834	-1664.01990	
547	5.460																																																							-23.77845	21.93371	-1663.51526	
548	5.470																																																							-23.81123	21.58911	-1663.74548	
549	5.480																																																							-23.68661	21.86320	-1662.65918	
550	5.490																																																							-23.52497	22.44223	-1661.29651	
551	5.500																																																							-23.37380	23.15311	-1660.05688	
552	5.510																																																							-22.53899	23.57679	-1660.52771	
553	5.520																																																							-21.36446	23.21166	-1663.81653	
554	5.530																																																							-21.44185	23.02224	-1664.48950	
555	5.540																																																							-21.51693	22.83848	-1665.14246	
556	5.550																																																							-21.52391	23.54100	-1665.63159	
557	5.560																																																							-21.56872	23.43585	-1666.02258	
558	5.570																																																							-21.60206	23.40372	-1666.32324	
559	5.580																																																							-21.68027	23.26974	-1667.01587	
560	5.590																																																							-21.51127	23.79560	-1668.10938	
561	5.600																																																							-21.53733	23.78045	-1668.34668	
562	5.610																																																							-21.54638	23.80812	-1668.43628	
563	5.620																																																							-21.57600	23.72595	-1668.69202	
564	5.630																																																							-21.57360	23.80170	-1668.68604	
565	5.640																																																							-20.64227	22.74234	-1671.35156	
566	5.650																																																							-20.66190	22.71456	-1671.52698	
567	5.660																																																							-20.64375	22.77857	-1671.37305	
568	5.670																																																							-20.66846	22.75137	-1671.59546	
569	5.680																																																							-20.69392	22.67878	-1671.81506	
570	5.690																																																							-20.70219	22.64722	-1671.88489	
571	5.700																																																							-20.70390	22.65887	-1671.90308	
572	5.710																																																							-20.66426	22.72770	-1671.55164	
573	5.720																																																							-20.65963	22.72698	-1671.50867	
574	5.730																																																							-20.64057	22.74520	-1671.33643	
575	5.740																																																							-20.62875	22.73896	-1671.22595	
576	5.750																																																							-20.59387	22.80379	-1670.91748	
577	5.760																																																							-20.61020	22.75553	-1671.05811	
578	5.770																																																							-20.61521	22.74704	-1671.10254	
579	5.780																																																							-20.61289	22.73096	-1671.07764	
580	5.790																																																							-20.58400	22.78943	-1670.82300	
581	5.800																																																							-20.58683	22.81299	-1670.85437	
582	5.810																																																							-20.59470	22.77790	-1670.91956	
583	5.820																																																							-20.58495	22.79716	-1670.83350	
584	5.830																																																							-20.54727	22.91532	-1670.51062	
585	5.840																																																							-20.54342	22.87192	-1670.46558	
586	5.850																																																							-20.55560	22.83644	-1670.57056	
587	5.860																																																							-20.52203	22.90445	-1670.27478	
588	5.870																																																							-20.52559	22.91184	-1670.30920	
589	5.880																																																							-20.50244	22.95950	-1670.10547	
590	5.890																																																							-20.45637	23.08991	-1669.70752	
591	5.900																																																							-20.42335	23.15132	-1669.41528	
592	5.910																																																							-20.38775	23.27392	-1669.11255	
593	5.920																																																							-20.33769	23.37766	-1668.67175	
594	5.930																																																							-20.41337	22.78289	-1667.69470	
595	5.940																																																							-20.39427	22.81055	-1667.52429	
596	5.950																																																							-20.35595	22.88254	-1667.18567	
597	5.960																																																							-20.30932	23.01085	-1666.78223	
598	5.970																																																							-20.26851	23.13562	-1666.43188	
599	5.980																																																							-19.27482	21.78073	-1669.45349	
600	5.990																																																							-19.20001	21.96905	-1668.80127	
601	6.000																																																							-19.15740	22.07010	-1668.42847	
602	6.010																																																							-19.12115	22.16553	-1668.11328	
